<?xml version="1.0" encoding="utf-8"?>
<!-- Generator: Adobe Illustrator 26.1.0, SVG Export Plug-In . SVG Version: 6.00 Build 0)  -->
<svg version="1.1" id="Layer_1" xmlns="http://www.w3.org/2000/svg" xmlns:xlink="http://www.w3.org/1999/xlink" x="0px" y="0px"
	 viewBox="0 0 206 47" style="enable-background:new 0 0 206 47;" xml:space="preserve">
<style type="text/css">
	.st0{fill:#374547;}
	.st1{fill:#CAAA6D;}
	.st2{fill:#374547;stroke:#374547;stroke-width:0.4;stroke-miterlimit:10;}
</style>
<g>
	<g>
		<g>
			<g>
				<path class="st0" d="M56.57,24.69c0.27,0,0.54-0.04,0.8-0.11c0.27-0.07,0.5-0.18,0.71-0.33c0.21-0.15,0.38-0.33,0.51-0.54
					c0.13-0.21,0.19-0.46,0.19-0.74c0-0.34-0.09-0.64-0.26-0.9c-0.17-0.26-0.4-0.5-0.68-0.72c-0.28-0.22-0.6-0.42-0.97-0.62
					c-0.36-0.19-0.73-0.39-1.11-0.58c-0.38-0.19-0.75-0.4-1.11-0.61c-0.36-0.21-0.68-0.45-0.97-0.71c-0.28-0.26-0.51-0.56-0.68-0.88
					c-0.17-0.32-0.26-0.7-0.26-1.12c0-0.42,0.08-0.81,0.24-1.17c0.16-0.36,0.39-0.67,0.69-0.93c0.3-0.26,0.68-0.47,1.12-0.62
					c0.45-0.15,0.96-0.22,1.53-0.22c0.52,0,0.98,0.06,1.39,0.17c0.41,0.11,0.77,0.27,1.08,0.49c0.31,0.22,0.57,0.48,0.79,0.8
					c0.22,0.31,0.39,0.68,0.52,1.09l-0.95,0.43c-0.11-0.34-0.25-0.65-0.42-0.92c-0.17-0.28-0.38-0.52-0.61-0.72
					c-0.24-0.2-0.51-0.35-0.83-0.46c-0.31-0.11-0.66-0.16-1.06-0.16c-0.35,0-0.65,0.05-0.91,0.15c-0.26,0.1-0.48,0.22-0.65,0.38
					c-0.17,0.16-0.3,0.33-0.39,0.53c-0.09,0.2-0.13,0.4-0.13,0.6c0,0.29,0.09,0.55,0.27,0.79c0.18,0.24,0.41,0.47,0.71,0.68
					c0.29,0.21,0.63,0.42,1,0.62s0.75,0.4,1.14,0.61s0.77,0.42,1.14,0.64c0.37,0.22,0.71,0.46,1,0.73c0.29,0.26,0.53,0.55,0.71,0.86
					c0.18,0.31,0.27,0.66,0.27,1.05c0,0.44-0.08,0.85-0.25,1.23c-0.17,0.38-0.41,0.72-0.75,1c-0.33,0.28-0.74,0.51-1.24,0.68
					c-0.49,0.17-1.06,0.25-1.72,0.25c-0.53,0-1-0.06-1.42-0.17c-0.41-0.12-0.78-0.28-1.1-0.51c-0.32-0.22-0.59-0.49-0.82-0.81
					c-0.23-0.32-0.41-0.68-0.56-1.09l0.99-0.41c0.12,0.36,0.27,0.68,0.47,0.96c0.2,0.28,0.42,0.52,0.68,0.72
					c0.26,0.2,0.55,0.35,0.87,0.45C55.87,24.64,56.21,24.69,56.57,24.69z"/>
				<path class="st0" d="M74,14.13v0.71h-5.8v3.93h3.88v0.71H68.2v4.93H74v0.71h-7.65v-11H74z"/>
				<path class="st0" d="M83.88,13.88l5.18,11.25h-1.88l-1.68-3.67h-4.72l-1.73,3.67h-0.93l5.3-11.25H83.88z M81.1,20.75h4.06
					l-2-4.35L81.1,20.75z"/>
				<path class="st0" d="M100.86,14.13h4.43c0.59,0,1.12,0.07,1.61,0.19c0.49,0.13,0.91,0.31,1.26,0.55
					c0.35,0.24,0.62,0.52,0.82,0.85c0.19,0.33,0.29,0.7,0.29,1.09c0,0.3-0.03,0.58-0.09,0.81c-0.06,0.24-0.17,0.46-0.32,0.66
					c-0.15,0.2-0.36,0.39-0.62,0.57c-0.26,0.18-0.58,0.36-0.97,0.55v0.03c0.39,0.06,0.75,0.17,1.06,0.31
					c0.32,0.15,0.58,0.34,0.81,0.57c0.22,0.23,0.4,0.5,0.52,0.8c0.12,0.31,0.18,0.64,0.18,1.01c0,0.41-0.09,0.8-0.27,1.17
					c-0.18,0.36-0.44,0.68-0.77,0.95c-0.33,0.27-0.74,0.48-1.21,0.63c-0.47,0.15-1,0.23-1.59,0.23h-5.13V14.13z M102.71,19.08h2.36
					c0.37,0,0.7-0.05,0.99-0.16c0.29-0.11,0.53-0.25,0.73-0.44c0.2-0.18,0.35-0.41,0.45-0.66c0.1-0.26,0.15-0.53,0.15-0.83
					c0-0.32-0.06-0.61-0.18-0.87c-0.12-0.26-0.31-0.49-0.57-0.68c-0.26-0.19-0.58-0.33-0.98-0.43c-0.4-0.1-0.87-0.15-1.42-0.15
					h-1.53V19.08z M102.71,24.33h2c0.54,0,1-0.05,1.4-0.15c0.4-0.1,0.72-0.25,0.98-0.43c0.26-0.19,0.45-0.41,0.57-0.67
					c0.12-0.26,0.19-0.54,0.19-0.85c0-0.35-0.06-0.67-0.17-0.97c-0.11-0.3-0.29-0.56-0.54-0.78c-0.25-0.22-0.58-0.39-0.99-0.52
					c-0.41-0.13-0.91-0.19-1.5-0.19h-1.94V24.33z"/>
				<path class="st0" d="M119.94,13.88l5.18,11.25h-1.88l-1.68-3.67h-4.72l-1.73,3.67h-0.93l5.3-11.25H119.94z M117.17,20.75h4.06
					l-2-4.35L117.17,20.75z"/>
				<path class="st0" d="M130.04,14.13h1.85v10.28h5.54v0.71h-7.39V14.13z"/>
				<path class="st0" d="M146.78,13.88l5.18,11.25h-1.88l-1.68-3.67h-4.72l-1.73,3.67h-0.93l5.3-11.25H146.78z M144.01,20.75h4.06
					l-2-4.35L144.01,20.75z"/>
				<path class="st0" d="M156.88,14.13h1.04l7.21,8.04h0.08v-8.04h0.81v11.25h-0.43l-7.8-8.94h-0.07v8.68h-0.84V14.13z"/>
				<path class="st0" d="M174.16,19.67c0,0.77,0.12,1.46,0.35,2.07c0.23,0.61,0.55,1.13,0.96,1.55c0.41,0.42,0.89,0.75,1.44,0.97
					c0.55,0.22,1.15,0.34,1.8,0.34c0.39,0,0.76-0.07,1.12-0.22c0.36-0.15,0.69-0.34,1-0.58c0.31-0.24,0.58-0.51,0.83-0.81
					c0.24-0.3,0.44-0.61,0.6-0.92l0.78,0.5c-0.23,0.37-0.49,0.73-0.8,1.07c-0.31,0.34-0.67,0.64-1.07,0.9
					c-0.41,0.26-0.87,0.47-1.38,0.63c-0.51,0.15-1.08,0.23-1.71,0.23c-0.91,0-1.74-0.15-2.48-0.46c-0.74-0.3-1.38-0.72-1.91-1.24
					c-0.53-0.52-0.94-1.13-1.23-1.82c-0.29-0.69-0.44-1.43-0.44-2.2c0-0.51,0.07-1.02,0.2-1.51c0.13-0.49,0.32-0.95,0.58-1.38
					c0.25-0.43,0.56-0.82,0.92-1.18c0.36-0.36,0.77-0.66,1.23-0.92c0.46-0.26,0.96-0.46,1.5-0.6c0.54-0.14,1.12-0.21,1.73-0.21
					c0.59,0,1.13,0.08,1.62,0.24c0.49,0.16,0.95,0.37,1.35,0.63c0.41,0.26,0.77,0.56,1.09,0.9c0.32,0.34,0.59,0.7,0.82,1.07
					l-0.8,0.53c-0.46-0.89-0.97-1.54-1.54-1.95c-0.57-0.41-1.22-0.62-1.97-0.62c-0.64,0-1.23,0.12-1.78,0.35
					c-0.55,0.23-1.04,0.56-1.45,1c-0.41,0.43-0.74,0.96-0.97,1.57S174.16,18.9,174.16,19.67z"/>
				<path class="st0" d="M196.64,14.13v0.71h-5.8v3.93h3.88v0.71h-3.88v4.93h5.8v0.71h-7.65v-11H196.64z"/>
			</g>
		</g>
	</g>
	<g>
		<g>
			<g>
				<g>
					<g>
						<g>
							<path class="st1" d="M37.16,32.95c0.19-0.09,0.38,0.13,0.27,0.3c-4.21,6.33-11.99,9.91-20.03,8.48
								c-3.2-0.57-6.07-1.87-8.48-3.69c-0.14-0.1-0.09-0.32,0.08-0.36c0.76-0.2,2.19-0.8,2.75-1.26c1.76-1.47,0-2.55-1.53-2.17
								c-0.88,0.22-2.55,0.64-3.53,0.47s-1.9-1.24-0.73-2.62s-1.29-2.92-2.23-5.48c-0.82-2.23-1.04-4.75-0.17-4.51
								c0.17,0.05,0.3,0.09,0.46,0.39c0.12,0.24,0.95,1.83,2.11,2.55c0.95,0.58,1.15,0.56,1.37-0.64c0.22-1.19,0.45-2.91,1.49-2.73
								s0.58,1.25,0.29,2.78c-0.28,1.53-0.15,5.17,0.94,5.1c1.09-0.07,2.22-2.33,2.13-4.28c-0.09-1.95-2.57-5.47-3.61-6.63
								s-2.11-2.19-2.38-3.59c-0.33-1.73-0.52-3,0.38-3.98s0.4,2.06,1.67,3.55c0.83,0.97,2.03,1.59,2.35,0.86
								c0.31-0.74,1.4-3.71,2.14-5.78s1.27-3.03,2.53-3.51s0.61,0.55-0.04,2.63s-1.49,4.66-0.94,5.11c0.54,0.45,3.36-0.28,2.99,0.8
								c-0.38,1.08-0.91,1.07-2.41,2.39s-1.7,5.33,0.47,3.78s2.68-2.43,2.79-4.43c0.1-2.01-0.08-4.41,0-6.78s0.27-3.91,0.83-4.52
								c0.56-0.6,0.85,0.24,0.98,1.49c0.13,1.25,0.18,2.41,1.7,1.45c1.52-0.96,3.99-2.72,5.67-2.6c1.68,0.12,3.2,1.1,2.44,1.32
								c-0.76,0.22-0.5-0.18-2.68,0.93s-3.18,1.72-4.46,4.75s-1.12,5.61-2.38,6.62c-1.26,1.01,1.22,0.66,2.25-0.57
								c1.03-1.22,1.39-2.22,3.26-5.05c1.87-2.84,2.37-3.63,4.31-4.42c1.94-0.8,4.24-0.47,2.58,0.55c-1.61,0.99-2.62,1.12-3.77,3.46
								s-1.33,3.81,2.16,1.88s3.84-2.85,4.5-3.51c1.02-1.04,2.35,0.52,1.98,2.04s-0.86,1.6,0,2.28c0.86,0.68,2.59,0.99,1.73,2.25
								c-0.86,1.26-2.24,1.25-4.09,1.3c-2.97,0.08-5.32-1.21-6.77-0.68c-1.44,0.54-2.24,1.01-1.14,1.82s1.62,2.4,0.47,2.81
								c-1.15,0.41-2.59-2-5.74-1.86s-4.23,0.61-5.63,3.35c-1.4,2.74-3.67,8.24-0.95,8.54c2.72,0.31,3.86-6.88,6.57-7.98
								s2.69,0.24,2.43,1.4c-0.33,1.45,0.84,1.73,4.17-0.75s4.94-3.96,5.83-4.94s1.56,0.95,0.88,2.01c-0.71,1.1-1.37,1.6-1.64,2.61
								c-0.28,1.01,1.98,0.44,2.83-0.29s2.32-2.4,2.93-3.26c0.61-0.86,1.61,0.99,0.32,2.61s-1.73,1.63-1.17,2.96
								c0.56,1.33,1.25,1.98-0.17,2.87c-1.42,0.89-2.68,0.93-4.31,0.55c-1.63-0.38-4.62-1.62-5.57-1.35
								c-0.95,0.27-1.81,1.09,0.51,2.11c2.32,1.03,2.6,2.4,1.15,2.49c-1.45,0.09-2.97-0.6-4.57-1.43c-1.26-0.65-2.21-2.07-4.43,0.27
								c-2.22,2.33-1.29,4.08,3.64,3.55c4.93-0.53,7.21-1.27,9.39-2.37C35.56,33.71,36.56,33.23,37.16,32.95z"/>
						</g>
					</g>
					<path class="st1" d="M5.75,27.89"/>
				</g>
			</g>
		</g>
	</g>
	<g>
		<path class="st2" d="M52.43,37.19h0.29c0.4,0,0.44-0.04,0.44-0.44v-4.77c0-0.4-0.04-0.44-0.44-0.44h-0.29v-0.15h2.05v0.15h-0.29
			c-0.4,0-0.45,0.04-0.45,0.44v4.77c0,0.4,0.05,0.44,0.45,0.44h0.29v0.15h-2.05V37.19z"/>
		<path class="st2" d="M58.48,36.53c0,0.48,0.21,0.74,0.6,0.74c0.53,0,0.88-0.31,0.88-0.8h0.22c0,0.61-0.44,1.03-1.1,1.03
			c-0.7,0-1.18-0.47-1.18-1.17v-2.57h-0.73v-0.22h0.51c0.29,0,0.38-0.15,0.44-0.44l0.15-0.74l0.21-0.14v1.05
			c0,0.17-0.04,0.22-0.11,0.26v0.01h1.8v0.22h-1.7V36.53z"/>
		<path class="st2" d="M68.68,37.49c-0.41,0-0.91-0.18-1.17-0.37c-0.06-0.04-0.09-0.1-0.12-0.17l-0.03,0.02
			c0.02,0.06,0.05,0.15,0.05,0.23l0.02,0.28l-0.15,0.01L67.2,36.2h0.22c0.02,0.56,0.63,1.07,1.25,1.07c0.64,0,0.98-0.24,0.98-0.69
			c0-0.83-2.23-1.1-2.23-2.28c0-0.55,0.5-0.91,1.25-0.91c0.4,0,0.7,0.1,0.91,0.26c0.08,0.07,0.12,0.15,0.12,0.17h0.02
			c-0.01-0.07-0.02-0.16-0.02-0.24l-0.02-0.19l0.15-0.01l0.07,1.17l-0.21,0.02l-0.01-0.12c-0.04-0.44-0.4-0.84-1.01-0.84
			c-0.5,0-0.77,0.18-0.77,0.51c0,0.92,2.31,1.2,2.31,2.36C70.21,37.07,69.6,37.49,68.68,37.49z"/>
		<path class="st2" d="M74.22,36.53c0,0.48,0.21,0.74,0.6,0.74c0.53,0,0.88-0.31,0.88-0.8h0.22c0,0.61-0.44,1.03-1.1,1.03
			c-0.7,0-1.18-0.47-1.18-1.17v-2.57h-0.73v-0.22h0.51c0.29,0,0.38-0.15,0.44-0.44l0.15-0.74l0.21-0.14v1.05
			c0,0.17-0.04,0.22-0.11,0.26v0.01h1.8v0.22h-1.7V36.53z"/>
		<path class="st2" d="M81.98,36.75c0,0.33,0.02,0.42,0.27,0.42c0.05,0,0.1-0.01,0.17-0.01l0.14-0.01l0.01,0.15l-1.08,0.11v-0.07
			c0-0.37-0.06-0.5-0.07-0.79h-0.03c-0.26,0.55-0.71,0.93-1.31,0.93c-0.75,0-1.26-0.41-1.26-1.03c0-0.78,0.83-1.4,2.06-1.4
			c0.16,0,0.37,0.02,0.51,0.04v-0.41c0-0.72-0.31-1.1-0.91-1.1c-0.57,0-0.83,0.19-1,0.67v0.07h-0.14v-0.59
			c0.34-0.27,0.72-0.36,1.13-0.36c0.98,0,1.5,0.48,1.5,1.39V36.75z M81.39,35.47V35.3c-0.12-0.02-0.33-0.05-0.47-0.05
			c-0.94,0-1.46,0.43-1.46,1.21c0,0.52,0.21,0.8,0.61,0.8C80.87,37.26,81.39,36.54,81.39,35.47z"/>
		<path class="st2" d="M87.97,33.3c0.16,0,0.3,0.02,0.43,0.07c0.14,0.05,0.25,0.18,0.25,0.35c0,0.2-0.17,0.37-0.36,0.37
			s-0.37-0.17-0.37-0.37c0-0.07,0.02-0.14,0.06-0.19v-0.01c-0.84,0-1.4,0.93-1.4,2.32v0.92c0,0.29,0.16,0.44,0.45,0.44h0.29v0.15
			h-2.05v-0.15h0.29c0.29,0,0.44-0.15,0.44-0.44v-2.65c0-0.4-0.04-0.44-0.44-0.44h-0.15v-0.15l1.22-0.11v0.07
			c-0.02,0.17-0.04,0.36-0.04,0.51v0.31c0,0.13-0.01,0.21-0.04,0.26v0.02h0.04C86.82,33.84,87.28,33.3,87.97,33.3z"/>
		<path class="st2" d="M92.65,36.53c0,0.48,0.21,0.74,0.6,0.74c0.53,0,0.88-0.31,0.88-0.8h0.22c0,0.61-0.44,1.03-1.1,1.03
			c-0.7,0-1.18-0.47-1.18-1.17v-2.57h-0.73v-0.22h0.51c0.29,0,0.38-0.15,0.44-0.44l0.15-0.74l0.21-0.14v1.05
			c0,0.17-0.04,0.22-0.11,0.26v0.01h1.8v0.22h-1.7V36.53z"/>
		<path class="st2" d="M98.71,37.49c-0.41,0-0.91-0.18-1.17-0.37c-0.06-0.04-0.09-0.1-0.12-0.17l-0.03,0.02
			c0.02,0.06,0.05,0.15,0.05,0.23l0.02,0.28l-0.15,0.01l-0.07-1.29h0.22c0.02,0.56,0.63,1.07,1.25,1.07c0.64,0,0.98-0.24,0.98-0.69
			c0-0.83-2.23-1.1-2.23-2.28c0-0.55,0.5-0.91,1.25-0.91c0.4,0,0.7,0.1,0.91,0.26c0.08,0.07,0.12,0.15,0.12,0.17h0.02
			c-0.01-0.07-0.02-0.16-0.02-0.24l-0.02-0.19l0.15-0.01l0.07,1.17l-0.21,0.02l-0.01-0.12c-0.04-0.44-0.4-0.84-1.01-0.84
			c-0.5,0-0.77,0.18-0.77,0.51c0,0.92,2.31,1.2,2.31,2.36C100.25,37.07,99.64,37.49,98.71,37.49z"/>
		<path class="st2" d="M107.29,37.19h0.29c0.29,0,0.44-0.15,0.44-0.44v-3.01h-0.73v-0.21h0.73v-1c0-0.83,0.56-1.39,1.4-1.39
			c0.41,0,0.8,0.09,1.14,0.36v0.59h-0.15v-0.07c-0.17-0.48-0.46-0.66-0.99-0.66c-0.52,0-0.81,0.28-0.81,0.8v1.36h1.11v0.21h-1.22
			v0.02c0.07,0.03,0.11,0.08,0.11,0.26v2.94c0,0.13-0.01,0.16-0.07,0.21v0.02h0.69v0.15h-1.94V37.19z"/>
		<path class="st2" d="M115.25,33.3c0.16,0,0.3,0.02,0.43,0.07c0.14,0.05,0.25,0.18,0.25,0.35c0,0.2-0.17,0.37-0.36,0.37
			s-0.37-0.17-0.37-0.37c0-0.07,0.02-0.14,0.06-0.19v-0.01c-0.84,0-1.4,0.93-1.4,2.32v0.92c0,0.29,0.16,0.44,0.45,0.44h0.29v0.15
			h-2.05v-0.15h0.29c0.29,0,0.44-0.15,0.44-0.44v-2.65c0-0.4-0.04-0.44-0.44-0.44h-0.15v-0.15l1.22-0.11v0.07
			c-0.02,0.17-0.04,0.36-0.04,0.51v0.31c0,0.13-0.01,0.21-0.04,0.26v0.02h0.04C114.1,33.84,114.56,33.3,115.25,33.3z"/>
		<path class="st2" d="M120.34,33.38c1.06,0,1.76,0.82,1.76,2.05c0,1.23-0.7,2.06-1.76,2.06c-1.06,0-1.77-0.83-1.77-2.06
			C118.58,34.2,119.29,33.38,120.34,33.38z M120.31,33.59c-0.71,0-1.09,0.55-1.09,1.55c0,1.38,0.41,2.13,1.15,2.13
			c0.71,0,1.09-0.54,1.09-1.54C121.46,34.35,121.06,33.59,120.31,33.59z"/>
		<path class="st2" d="M124.94,37.19h0.29c0.4,0,0.44-0.04,0.44-0.44v-2.65c0-0.4-0.04-0.44-0.44-0.44h-0.15v-0.15l1.22-0.07v0.06
			c-0.02,0.17-0.04,0.33-0.04,0.48v0.13c0,0.13-0.01,0.21-0.04,0.26v0.02h0.04c0.25-0.64,0.72-1.03,1.33-1.03
			c0.56,0,0.91,0.22,1.05,0.72c0.01,0.04,0.02,0.11,0.02,0.17c0,0.07,0,0.12-0.01,0.17l-0.01,0.02h0.04l0.01-0.02
			c0.02-0.07,0.06-0.17,0.09-0.25c0.26-0.51,0.69-0.81,1.23-0.81c0.71,0,1.09,0.38,1.09,1.1v2.27c0,0.4,0.05,0.44,0.45,0.44h0.21
			v0.15h-1.8v-0.15h0.63v-0.02c-0.06-0.06-0.07-0.08-0.07-0.21v-2.33c0-0.67-0.2-1.03-0.58-1.03c-0.75,0-1.26,0.76-1.26,1.91v1.25
			c0,0.4,0.05,0.44,0.45,0.44h0.21v0.15h-1.73v-0.15h0.55v-0.02c-0.06-0.06-0.07-0.08-0.07-0.21v-2.33c0-0.67-0.2-1.03-0.58-1.03
			c-0.75,0-1.26,0.76-1.26,1.91v1.25c0,0.4,0.05,0.44,0.45,0.44h0.29v0.15h-2.05V37.19z"/>
		<path class="st2" d="M140.03,36.53c0,0.48,0.21,0.74,0.6,0.74c0.53,0,0.88-0.31,0.88-0.8h0.22c0,0.61-0.44,1.03-1.1,1.03
			c-0.7,0-1.18-0.47-1.18-1.17v-2.57h-0.73v-0.22h0.51c0.29,0,0.38-0.15,0.44-0.44l0.15-0.74l0.21-0.14v1.05
			c0,0.17-0.04,0.22-0.11,0.26v0.01h1.8v0.22h-1.7V36.53z"/>
		<path class="st2" d="M144.49,37.19h0.29c0.4,0,0.44-0.04,0.44-0.44v-4.99c0-0.4-0.04-0.44-0.44-0.44h-0.15v-0.15l1.22-0.07v0.07
			c-0.02,0.17-0.04,0.33-0.04,0.48v2.56c0,0.13-0.01,0.21-0.04,0.26v0.02h0.04c0.26-0.67,0.79-1.11,1.47-1.11
			c0.81,0,1.25,0.44,1.25,1.25v2.13c0,0.4,0.04,0.44,0.44,0.44h0.22v0.15h-1.8v-0.15h0.63v-0.02c-0.06-0.06-0.07-0.08-0.07-0.21
			v-2.19c0-0.77-0.25-1.17-0.73-1.17c-0.84,0-1.41,0.78-1.41,1.94v1.22c0,0.4,0.05,0.44,0.45,0.44h0.29v0.15h-2.05V37.19z"/>
		<path class="st2" d="M155.24,35.28h-2.68c0.02,1.29,0.48,1.98,1.33,1.98c0.6,0,1.02-0.33,1.3-0.93l0.2,0.08
			c-0.31,0.69-0.8,1.07-1.55,1.07c-1.14,0-1.91-0.83-1.91-2.06c0-1.23,0.75-2.05,1.88-2.05c0.81,0,1.58,0.58,1.58,1.61v0.15
			C155.39,35.23,155.34,35.28,155.24,35.28z M154.7,35.06c0.04,0,0.07-0.02,0.07-0.07c0-0.91-0.37-1.4-1.07-1.4
			c-0.65,0-1.1,0.59-1.13,1.47H154.7z"/>
		<path class="st2" d="M163.85,33.49v0.07c-0.02,0.17-0.04,0.29-0.04,0.44v2.76c0,0.4,0.05,0.44,0.45,0.44h0.29v0.15h-2.05v-0.15
			h0.29c0.4,0,0.44-0.04,0.44-0.44v-2.65c0-0.4-0.04-0.44-0.44-0.44h-0.15v-0.15L163.85,33.49z M163.89,32.02
			c0,0.21-0.13,0.37-0.36,0.37c-0.21,0-0.37-0.14-0.37-0.37c0-0.21,0.14-0.36,0.37-0.36C163.74,31.66,163.89,31.79,163.89,32.02z"/>
		<path class="st2" d="M167.23,37.19h0.29c0.4,0,0.44-0.04,0.44-0.44v-2.65c0-0.4-0.04-0.44-0.44-0.44h-0.15v-0.15l1.22-0.07v0.06
			c-0.02,0.17-0.04,0.33-0.04,0.48v0.21c0,0.13-0.02,0.19-0.04,0.26v0.02h0.04c0.25-0.66,0.79-1.11,1.47-1.11
			c0.81,0,1.25,0.44,1.25,1.25v2.13c0,0.4,0.04,0.44,0.44,0.44h0.22v0.15h-1.8v-0.15h0.63v-0.02c-0.06-0.06-0.07-0.08-0.07-0.21
			v-2.19c0-0.77-0.25-1.17-0.73-1.17c-0.84,0-1.41,0.8-1.41,1.94v1.22c0,0.4,0.05,0.44,0.45,0.44h0.29v0.15h-2.05V37.19z"/>
		<path class="st2" d="M176.23,37.49c-0.41,0-0.91-0.18-1.17-0.37c-0.06-0.04-0.09-0.1-0.12-0.17l-0.03,0.02
			c0.02,0.06,0.05,0.15,0.05,0.23l0.02,0.28l-0.15,0.01l-0.07-1.29h0.22c0.02,0.56,0.63,1.07,1.25,1.07c0.64,0,0.98-0.24,0.98-0.69
			c0-0.83-2.23-1.1-2.23-2.28c0-0.55,0.5-0.91,1.25-0.91c0.4,0,0.7,0.1,0.91,0.26c0.08,0.07,0.12,0.15,0.12,0.17h0.02
			c-0.01-0.07-0.02-0.16-0.02-0.24l-0.02-0.19l0.15-0.01l0.07,1.17l-0.21,0.02l-0.01-0.12c-0.04-0.44-0.4-0.84-1.01-0.84
			c-0.5,0-0.77,0.18-0.77,0.51c0,0.92,2.31,1.2,2.31,2.36C177.77,37.07,177.16,37.49,176.23,37.49z"/>
		<path class="st2" d="M181.89,33.49v0.07c-0.02,0.17-0.04,0.29-0.04,0.44v2.76c0,0.4,0.05,0.44,0.45,0.44h0.29v0.15h-2.05v-0.15
			h0.29c0.4,0,0.44-0.04,0.44-0.44v-2.65c0-0.4-0.04-0.44-0.44-0.44h-0.15v-0.15L181.89,33.49z M181.93,32.02
			c0,0.21-0.13,0.37-0.36,0.37c-0.21,0-0.37-0.14-0.37-0.37c0-0.21,0.14-0.36,0.37-0.36C181.79,31.66,181.93,31.79,181.93,32.02z"/>
		<path class="st2" d="M187.99,31.32h-0.15v-0.15l1.22-0.03v0.06c-0.02,0.17-0.04,0.3-0.04,0.45v5.11c0,0.33,0.03,0.42,0.28,0.42
			c0.05,0,0.09-0.01,0.16-0.01l0.14-0.01l0.02,0.15l-1.08,0.11v-0.07c0-0.37-0.05-0.58-0.06-0.87h-0.04
			c-0.26,0.64-0.73,0.97-1.33,0.97c-1,0-1.68-0.81-1.68-2.02s0.68-2.02,1.68-2.02c0.6,0,1.07,0.32,1.33,0.97h0.05v-0.02
			c-0.03-0.05-0.05-0.12-0.05-0.26v-2.34C188.42,31.36,188.38,31.32,187.99,31.32z M187.18,33.63c-0.72,0-1.11,0.63-1.11,1.79
			c0,1.17,0.39,1.8,1.11,1.8c0.75,0,1.24-0.73,1.24-1.8C188.42,34.35,187.94,33.63,187.18,33.63z"/>
		<path class="st2" d="M195.74,35.28h-2.68c0.02,1.29,0.48,1.98,1.33,1.98c0.6,0,1.02-0.33,1.3-0.93l0.2,0.08
			c-0.31,0.69-0.8,1.07-1.55,1.07c-1.14,0-1.91-0.83-1.91-2.06c0-1.23,0.75-2.05,1.88-2.05c0.81,0,1.58,0.58,1.58,1.61v0.15
			C195.89,35.23,195.83,35.28,195.74,35.28z M195.2,35.06c0.04,0,0.07-0.02,0.07-0.07c0-0.91-0.37-1.4-1.07-1.4
			c-0.65,0-1.1,0.59-1.13,1.47H195.2z"/>
	</g>
	<g>
		<path class="st0" d="M203,15.2c0,0.88-0.71,1.59-1.59,1.59s-1.59-0.71-1.59-1.59s0.71-1.59,1.59-1.59S203,14.32,203,15.2z
			 M201.41,13.64c-0.86,0-1.56,0.7-1.56,1.56s0.7,1.56,1.56,1.56s1.56-0.7,1.56-1.56C202.97,14.34,202.27,13.64,201.41,13.64z"/>
		<g>
			<path class="st0" d="M200.72,16.17v-2.05h0.89c0.19,0,0.34,0.04,0.44,0.13c0.1,0.09,0.15,0.22,0.15,0.4
				c0,0.33-0.18,0.51-0.53,0.53l0.52,0.98h-0.21l-0.51-0.98h-0.58v0.98H200.72z M200.89,15.02h0.7c0.14,0,0.25-0.03,0.31-0.09
				c0.07-0.06,0.1-0.15,0.1-0.28s-0.03-0.22-0.1-0.28c-0.07-0.06-0.17-0.09-0.31-0.09h-0.7V15.02z"/>
		</g>
	</g>
</g>
</svg>
